<?xml version="1.0" encoding="UTF-8"?>
<svg id="Layer_1" xmlns="http://www.w3.org/2000/svg" xmlns:ev="http://www.w3.org/2001/xml-events" version="1.1" viewBox="0 0 576 792">
  <!-- Generator: Adobe Illustrator 29.6.1, SVG Export Plug-In . SVG Version: 2.1.1 Build 9)  -->
  <defs>
    <style>
      .st0 {
        fill: none;
        stroke: #000;
        stroke-miterlimit: 288;
        stroke-width: .72px;
      }
    </style>
  </defs>
  <polyline class="st0" points="144 62.35 108 124.71 36 124.71 0 62.35 36 0 108 0 144 62.35"/>
  <polyline class="st0" points="252 124.71 216 187.06 144 187.06 108 124.71 144 62.35 216 62.35 252 124.71"/>
  <polyline class="st0" points="360 62.35 324 124.71 252 124.71 216 62.35 252 0 324 0 360 62.35"/>
  <polyline class="st0" points="468 124.71 432 187.06 360 187.06 324 124.71 360 62.35 432 62.35 468 124.71"/>
  <polyline class="st0" points="576 62.35 540 124.71 468 124.71 432 62.35 468 0 540 0 576 62.35"/>
  <polyline class="st0" points="144 187.06 108 249.42 36 249.42 0 187.06 36 124.71 108 124.71 144 187.06"/>
  <polyline class="st0" points="252 249.42 216 311.77 144 311.77 108 249.42 144 187.06 216 187.06 252 249.42"/>
  <polyline class="st0" points="360 187.06 324 249.42 252 249.42 216 187.06 252 124.71 324 124.71 360 187.06"/>
  <polyline class="st0" points="468 249.42 432 311.77 360 311.77 324 249.42 360 187.06 432 187.06 468 249.42"/>
  <polyline class="st0" points="576 187.06 540 249.42 468 249.42 432 187.06 468 124.71 540 124.71 576 187.06"/>
  <polyline class="st0" points="144 311.77 108 374.12 36 374.12 0 311.77 36 249.42 108 249.42 144 311.77"/>
  <polyline class="st0" points="252 374.12 216 436.48 144 436.48 108 374.12 144 311.77 216 311.77 252 374.12"/>
  <polyline class="st0" points="360 311.77 324 374.12 252 374.12 216 311.77 252 249.42 324 249.42 360 311.77"/>
  <polyline class="st0" points="468 374.12 432 436.48 360 436.48 324 374.12 360 311.77 432 311.77 468 374.12"/>
  <polyline class="st0" points="576 311.77 540 374.12 468 374.12 432 311.77 468 249.42 540 249.42 576 311.77"/>
  <polyline class="st0" points="144 436.48 108 498.83 36 498.83 0 436.48 36 374.12 108 374.12 144 436.48"/>
  <polyline class="st0" points="252 498.83 216 561.18 144 561.18 108 498.83 144 436.48 216 436.48 252 498.83"/>
  <polyline class="st0" points="360 436.48 324 498.83 252 498.83 216 436.48 252 374.12 324 374.12 360 436.48"/>
  <polyline class="st0" points="468 498.83 432 561.18 360 561.18 324 498.83 360 436.48 432 436.48 468 498.83"/>
  <polyline class="st0" points="576 436.48 540 498.83 468 498.83 432 436.48 468 374.12 540 374.12 576 436.48"/>
  <polyline class="st0" points="144 561.18 108 623.54 36 623.54 0 561.18 36 498.83 108 498.83 144 561.18"/>
  <polyline class="st0" points="252 623.54 216 685.89 144 685.89 108 623.54 144 561.18 216 561.18 252 623.54"/>
  <polyline class="st0" points="360 561.18 324 623.54 252 623.54 216 561.18 252 498.83 324 498.83 360 561.18"/>
  <polyline class="st0" points="468 623.54 432 685.89 360 685.89 324 623.54 360 561.18 432 561.18 468 623.54"/>
  <polyline class="st0" points="576 561.18 540 623.54 468 623.54 432 561.18 468 498.83 540 498.83 576 561.18"/>
  <polyline class="st0" points="144 685.89 108 748.25 36 748.25 0 685.89 36 623.54 108 623.54 144 685.89"/>
  <polyline class="st0" points="360 685.89 324 748.25 252 748.25 216 685.89 252 623.54 324 623.54 360 685.89"/>
  <polyline class="st0" points="576 685.89 540 748.25 468 748.25 432 685.89 468 623.54 540 623.54 576 685.89"/>
</svg>